<svg
    width="390"
    height="440"
    viewBox="0 0 390 440"
    fill="none"
    xmlns="http://www.w3.org/2000/svg"
>
    <path
        d="M318.19 217.09C341.46 219.17 364.73 217.09 388 210.852C384.477 205.228 383.775 188.344 386.566 183.105C379.992 182.622 379.705 165.736 381.535 157.31C372.168 153.579 365.627 148.818 364.415 142.113C357.456 140.962 353.183 136.627 350.812 130.038C343.692 142.07 331.859 154.049 319.093 166.017L318.19 217.09Z"
        fill="#CACCCF"
    />
    <path
        d="M182.019 8.959C182.019 8.959 182.019 38.6592 182.019 43.2974C186.715 37.2806 193.948 29.8149 201.442 30.8945C208.132 31.8589 209.952 38.9003 215.693 39.9594C220.81 40.9031 229.138 37.1119 242.771 13.9794C229.626 23.5661 222.431 23.6012 218.254 21.6633C210.398 18.0193 211.273 6.49382 203.252 3.00169C196.62 0.114604 188.212 4.59174 182.019 8.959Z"
        fill="#EF3F32"
    />
    <path
        d="M302.855 221.925C302.855 221.925 208.261 223.926 113.668 204.771C126.839 156.875 125.642 87.427 125.642 87.427C217.518 77.8196 259.749 52.7026 259.749 52.7026C259.749 52.7026 265.791 79.0686 287.658 92.6946C283.953 112.413 290.327 126.023 302.855 141.525C291.783 152.596 303.475 174.127 309.022 179.674C297.564 191.131 294.932 214.002 302.855 221.925Z"
        fill="#CACCCF"
    />
    <path
        opacity="0.66"
        d="M182.959 215.512C229.883 202.669 242.771 174.836 242.771 132.239C242.771 111.845 234.441 82.9315 225.142 67.1357C203.091 74.458 170.208 82.7667 125.642 87.427C125.642 87.427 126.839 156.875 113.668 204.771C137.254 209.547 160.839 213.007 182.959 215.512Z"
        fill="#F1F3F6"
    />
    <g opacity="0.3">
        <path
            opacity="0.3"
            d="M302.854 170.498C302.854 170.498 294.587 204.481 285.268 221.984M145.934 85.6164C145.934 85.6164 152.263 142.692 131.584 208.155L145.934 85.6164ZM165.688 81.8382C165.688 81.8382 167.788 146.924 147.95 210.852L165.688 81.8382ZM185.065 78.0111C185.065 78.0111 180.255 159.022 164.55 213.239L185.065 78.0111ZM206.299 72.8107C206.299 72.8107 197.694 165.788 180.802 215.265L206.299 72.8107ZM227.921 67.1357C227.921 67.1357 213.584 172.943 197.953 217.09L227.921 67.1357ZM251.457 57.5138C251.457 57.5138 228.963 180.585 214.595 219.404L251.457 57.5138ZM268.796 73.3783C268.796 73.3783 245.18 185.914 232.074 219.404L268.796 73.3783ZM287.658 92.6945C287.658 92.6945 260.774 193.763 248.931 221.925L287.658 92.6945ZM296.012 132.239C296.012 132.239 277.607 199.152 267.026 221.984L296.012 132.239Z"
            stroke="#B22F22"
            stroke-width="1.52595"
            stroke-miterlimit="10"
            stroke-linecap="round"
            stroke-linejoin="round"
        />
    </g>
    <path
        d="M302.855 221.925C302.855 221.925 208.261 223.926 113.668 204.771C126.839 156.875 125.642 87.427 125.642 87.427C217.518 77.8196 259.749 52.7026 259.749 52.7026"
        stroke="#5D1900"
        stroke-width="4.57784"
        stroke-miterlimit="10"
        stroke-linecap="round"
        stroke-linejoin="round"
    />
    <path
        d="M302.855 221.925C302.855 221.925 208.261 223.926 113.668 204.771C126.839 156.875 125.642 87.427 125.642 87.427C217.518 77.8196 259.749 52.7026 259.749 52.7026C259.749 52.7026 265.791 79.0686 287.658 92.6946C283.953 112.413 290.327 126.023 302.855 141.525C291.783 152.596 303.475 174.127 309.022 179.674C297.564 191.131 294.932 214.002 302.855 221.925Z"
        stroke="#3A3736"
        stroke-width="4.57784"
        stroke-miterlimit="10"
        stroke-linecap="round"
        stroke-linejoin="round"
    />
    <path
        d="M287.658 92.6945C217.465 118.636 124.939 121.572 124.939 121.572"
        stroke="#3A3736"
        stroke-width="2.28892"
        stroke-miterlimit="10"
        stroke-linecap="round"
        stroke-linejoin="round"
    />
    <path
        d="M180.802 57.5138L286.577 244.673"
        stroke="#3A3736"
        stroke-width="0.762973"
        stroke-miterlimit="10"
        stroke-linecap="round"
        stroke-linejoin="round"
    />
    <path
        d="M176.309 157.31L94.2927 273.287"
        stroke="#3A3736"
        stroke-width="0.762973"
        stroke-miterlimit="10"
        stroke-linecap="round"
        stroke-linejoin="round"
    />
    <path
        d="M178.22 122.509L39.2786 259.324"
        stroke="#3A3736"
        stroke-width="0.762973"
        stroke-miterlimit="10"
        stroke-linecap="round"
        stroke-linejoin="round"
    />
    <path
        d="M182.019 43.2966L324.63 240.575"
        stroke="#3A3736"
        stroke-width="0.762973"
        stroke-miterlimit="10"
        stroke-linecap="round"
        stroke-linejoin="round"
    />
    <path
        d="M180.577 2.97728C180.577 2.97728 189.364 194.868 142.527 279.868"
        stroke="#3A3736"
        stroke-width="4.57784"
        stroke-miterlimit="10"
        stroke-linecap="round"
        stroke-linejoin="round"
    />
    <path
        d="M278.143 257.201L110.84 259.324L134.596 248.261L254.113 246.745L278.143 257.201Z"
        fill="#FC3A4D"
    />
    <path
        d="M278.143 257.201L110.84 259.324L134.596 248.261L254.113 246.745L278.143 257.201Z"
        stroke="#3A3736"
        stroke-width="4.57784"
        stroke-miterlimit="10"
        stroke-linecap="round"
        stroke-linejoin="round"
    />
    <path
        d="M265.487 257.242L123.463 259.25L123.781 281.749L265.805 279.741L265.487 257.242Z"
        fill="#F0FAFC"
    />
    <path
        d="M265.487 257.242L123.463 259.25L123.781 281.749L265.805 279.741L265.487 257.242Z"
        stroke="#3A3736"
        stroke-width="4.57784"
        stroke-miterlimit="10"
        stroke-linecap="round"
        stroke-linejoin="round"
    />
    <path
        d="M206.113 266.985L182.966 267.312L183.155 280.649L206.302 280.322L206.113 266.985Z"
        stroke="#3A3736"
        stroke-width="4.57784"
        stroke-miterlimit="10"
        stroke-linecap="round"
        stroke-linejoin="round"
    />
    <path
        d="M183.145 280.65L182.975 267.312L206.123 267.018L206.293 280.356"
        stroke="#3A3736"
        stroke-width="4.57784"
        stroke-miterlimit="10"
        stroke-linecap="round"
        stroke-linejoin="round"
    />
    <path
        d="M206.113 266.985L182.966 267.312L183.155 280.649L206.302 280.322L206.113 266.985Z"
        fill="#3A3736"
    />
    <path
        d="M183.145 280.65L182.975 267.312L206.123 267.018L206.293 280.356"
        fill="#3A3736"
    />
    <path
        d="M166.652 267.441L143.505 267.768L143.693 281.106L166.841 280.778L166.652 267.441Z"
        stroke="#3A3736"
        stroke-width="4.57784"
        stroke-miterlimit="10"
        stroke-linecap="round"
        stroke-linejoin="round"
    />
    <path
        d="M143.682 281.105L143.513 267.767L166.661 267.473L166.83 280.812"
        stroke="#3A3736"
        stroke-width="4.57784"
        stroke-miterlimit="10"
        stroke-linecap="round"
        stroke-linejoin="round"
    />
    <path
        d="M166.652 267.441L143.505 267.768L143.693 281.106L166.841 280.778L166.652 267.441Z"
        fill="#3A3736"
    />
    <path
        d="M143.682 281.105L143.513 267.767L166.661 267.473L166.83 280.812"
        fill="#3A3736"
    />
    <path
        d="M245.683 266.436L222.536 266.763L222.725 280.101L245.872 279.774L245.683 266.436Z"
        stroke="#3A3736"
        stroke-width="4.57784"
        stroke-miterlimit="10"
        stroke-linecap="round"
        stroke-linejoin="round"
    />
    <path
        d="M222.716 280.103L222.546 266.765L245.694 266.471L245.864 279.809"
        stroke="#3A3736"
        stroke-width="4.57784"
        stroke-miterlimit="10"
        stroke-linecap="round"
        stroke-linejoin="round"
    />
    <path
        d="M245.683 266.436L222.536 266.763L222.725 280.101L245.872 279.774L245.683 266.436Z"
        fill="#3A3736"
    />
    <path
        d="M222.716 280.103L222.546 266.765L245.694 266.471L245.864 279.809"
        fill="#3A3736"
    />
    <path
        d="M120.169 172.807C125.709 178.347 283.081 187.303 309.022 179.673M302.854 141.525C243.279 152.206 124.938 149.821 124.938 149.821L302.854 141.525Z"
        stroke="#3A3736"
        stroke-width="2.28892"
        stroke-miterlimit="10"
        stroke-linecap="round"
        stroke-linejoin="round"
    />
    <path
        d="M363.956 268.365C367.657 252.46 370.345 236.868 375.74 221.925C351.929 235.639 337.783 238.798 316.818 241.751C306.566 243.196 296.461 244.158 286.576 244.673C277.408 258.599 269.69 269.075 215.392 276.824C171.583 283.075 88.9343 283.516 27.6423 255.336C42.8827 293.721 72.4449 318.745 103.013 325.401H287.66C287.739 297.577 328.035 274.304 363.956 268.365Z"
        fill="#F1F3F6"
    />
    <g opacity="0.46">
        <path
            opacity="0.46"
            d="M50.9138 264.409C42.9125 261.782 35.1179 258.773 27.6423 255.337C27.8041 255.744 27.9773 256.142 28.1421 256.546C35.5116 259.532 43.1353 262.138 50.9138 264.409Z"
            fill="#1C918E"
        />
        <path
            opacity="0.6"
            d="M364.846 227.806C361.169 240.157 359.7 249.072 356.687 262.02C320.766 267.958 279.597 295.056 279.519 322.88H94.8717C93.9553 322.681 93.0398 322.463 92.1257 322.23C95.7254 323.541 99.3618 324.606 103.013 325.401H287.661C287.739 297.576 328.035 274.303 363.956 268.365C367.657 252.459 370.345 236.867 375.74 221.924C371.877 224.149 368.271 226.093 364.846 227.806Z"
            fill="#1C918E"
        />
    </g>
    <path
        opacity="0.17"
        d="M366.412 257.362C292.21 274.29 241.972 277.662 206.292 280.357C203.537 280.808 218.432 276.391 215.392 276.824C171.584 283.076 88.935 283.517 27.6431 255.337C42.8835 293.722 72.4456 318.746 103.013 325.401H287.661C287.739 297.576 328.035 274.304 363.956 268.365C364.813 264.679 365.617 261.01 366.412 257.362Z"
        fill="#F1F3F6"
    />
    <path
        d="M106.926 283.892C68.2501 278.079 38.2866 267.216 27.6423 255.337C42.8827 293.722 72.4449 318.746 103.013 325.401H287.66C287.738 297.576 328.034 274.304 363.955 268.365C364.812 264.679 365.616 261.01 366.411 257.362C292.209 274.289 230.313 284.78 194.634 287.475C166.21 289.297 138.365 288.094 113.667 284.842"
        stroke="#3A3736"
        stroke-width="3.05189"
        stroke-miterlimit="10"
        stroke-linecap="round"
        stroke-linejoin="round"
    />
    <path
        opacity="0.54"
        d="M223.893 305.474C157.446 309.728 94.5508 308.343 48.999 291.285C64.257 309.318 83.4251 321.136 103.013 325.401H287.66C287.691 314.489 293.908 304.278 303.619 295.538C278.59 300.274 251.81 303.687 223.893 305.474Z"
        fill="#2D5B72"
    />
    <path
        d="M239.335 304.427C235.118 304.784 229.517 305.105 225.244 305.386M218.694 305.785C190.15 307.375 154.563 307.532 129.372 306.421L218.694 305.785Z"
        stroke="#3A3736"
        stroke-width="3.05189"
        stroke-miterlimit="10"
        stroke-linecap="round"
        stroke-linejoin="round"
    />
    <path
        d="M123.477 306.007C95.7639 303.878 70.4576 299.321 48.999 291.285C64.257 309.318 83.4251 321.136 103.013 325.401H287.66C287.691 314.489 293.908 304.278 303.619 295.538C285.231 299.017 265.897 301.783 245.863 303.714"
        stroke="#3A3736"
        stroke-width="3.05189"
        stroke-miterlimit="10"
        stroke-linecap="round"
        stroke-linejoin="round"
    />
    <path
        d="M363.956 268.365C367.657 252.46 370.345 236.868 375.74 221.925C351.929 235.639 337.783 238.798 316.818 241.751C306.566 243.196 296.461 244.158 286.576 244.673C277.408 258.599 269.69 269.075 215.392 276.824C171.583 283.075 88.9343 283.516 27.6423 255.336C42.8827 293.721 72.4449 318.745 103.013 325.401H287.66C287.739 297.577 328.035 274.304 363.956 268.365Z"
        stroke="#3A3736"
        stroke-width="4.57784"
        stroke-miterlimit="10"
        stroke-linecap="round"
        stroke-linejoin="round"
    />
    <path
        d="M54.7927 245.017H110.84C103.924 238.101 102.946 228.27 107.232 221.984C98.3456 217.097 96.5457 202.878 100.938 198.485C100.938 198.485 94.9229 196.856 90.4762 190.222C83.1738 179.327 87.0947 166.018 87.0947 166.018C64.7343 166.952 59.2722 153.041 59.2722 153.041L25.8921 178.852C25.8921 178.852 54.7927 205.027 54.7927 245.017Z"
        fill="#C4C4C4"
    />
    <path
        opacity="0.66"
        d="M81.5518 245.017C82.0317 241.055 82.285 236.974 82.285 232.801C82.285 197.802 64.6405 169.096 42.1854 166.253L25.8921 178.852C25.8921 178.852 54.7935 205.027 54.7935 245.017H81.5518Z"
        fill="#F1F3F6"
    />
    <g opacity="0.3">
        <g opacity="0.3">
            <path
                d="M33.7097 172.807C33.7097 172.807 69.9593 205.634 70.9214 245.017L33.7097 172.807ZM42.1856 166.253C42.1856 166.253 78.6214 190.825 87.0957 244.673L42.1856 166.253ZM50.914 159.504C50.914 159.504 92.126 185.693 100.938 245.017L50.914 159.504Z"
                fill="#CACCCF"
            />
            <path
                d="M50.914 159.504C50.914 159.504 92.126 185.693 100.938 245.017M33.7097 172.807C33.7097 172.807 69.9593 205.634 70.9214 245.017L33.7097 172.807ZM42.1856 166.253C42.1856 166.253 78.6214 190.825 87.0957 244.673L42.1856 166.253Z"
                stroke="#B22F22"
                stroke-width="1.52595"
                stroke-miterlimit="10"
                stroke-linecap="round"
                stroke-linejoin="round"
            />
        </g>
    </g>
    <path
        d="M54.7927 245.017H110.84C103.924 238.101 102.946 228.27 107.232 221.984C98.3456 217.097 96.5457 202.878 100.938 198.485C100.938 198.485 94.9229 196.856 90.4763 190.222C83.1738 179.327 87.0947 166.018 87.0947 166.018C64.7343 166.952 59.2722 153.041 59.2722 153.041L25.8921 178.852C25.8921 178.852 54.7927 205.027 54.7927 245.017Z"
        stroke="#3A3736"
        stroke-width="4.57784"
        stroke-miterlimit="10"
        stroke-linecap="round"
        stroke-linejoin="round"
    />
    <path
        opacity="0.66"
        d="M352.5 217.137C357.078 209.579 359.778 200.356 359.778 190.392C359.778 171.761 350.368 155.707 336.803 148.341C331.424 154.239 325.374 160.13 319.093 166.018L318.19 217.09C329.626 218.112 341.063 218.124 352.5 217.137Z"
        fill="#F1F3F6"
    />
    <g opacity="0.3">
        <path
            opacity="0.3"
            d="M336.803 148.341C336.803 148.341 356.36 179.525 360.806 216.247M324.63 160.754C324.63 160.754 331.718 202.116 326.928 217.592L324.63 160.754ZM343.301 140.766C343.301 140.766 370.455 166.189 375.74 213.239L343.301 140.766ZM330.155 155.313C330.155 155.313 343.301 180.93 343.301 217.87L330.155 155.313Z"
            stroke="#B22F22"
            stroke-width="1.52595"
            stroke-miterlimit="10"
            stroke-linecap="round"
            stroke-linejoin="round"
        />
    </g>
    <path
        d="M318.786 173.954C337.19 163.577 351.944 153.957 364.415 142.113M318.19 217.09C341.46 219.17 364.73 217.09 388 210.852C384.477 205.228 383.775 188.344 386.566 183.105C379.992 182.622 379.705 165.736 381.535 157.31C372.168 153.579 365.627 148.818 364.415 142.113C357.456 140.962 353.183 136.627 350.812 130.038C343.692 142.07 331.859 154.049 319.093 166.017L318.19 217.09Z"
        stroke="#3A3736"
        stroke-width="2.28892"
        stroke-miterlimit="10"
        stroke-linecap="round"
        stroke-linejoin="round"
    />
    <path
        d="M359.778 325.401H361.834"
        stroke="#3A3736"
        stroke-width="4.57784"
        stroke-miterlimit="10"
        stroke-linecap="round"
        stroke-linejoin="round"
    />
    <path
        d="M330.145 325.401H347.373"
        stroke="#3A3736"
        stroke-width="4.57784"
        stroke-miterlimit="10"
        stroke-linecap="round"
        stroke-linejoin="round"
    />
    <path
        d="M28.6128 325.401H316.818"
        stroke="#3A3736"
        stroke-width="4.57784"
        stroke-miterlimit="10"
        stroke-linecap="round"
        stroke-linejoin="round"
    />
    <path
        d="M3 325.401H12.2488"
        stroke="#3A3736"
        stroke-width="4.57784"
        stroke-miterlimit="10"
        stroke-linecap="round"
        stroke-linejoin="round"
    />
    <g opacity="0.48">
        <path
            opacity="0.48"
            d="M272.205 337.204H288.683"
            stroke="#298589"
            stroke-width="4.57784"
            stroke-miterlimit="10"
            stroke-linecap="round"
            stroke-linejoin="round"
        />
        <path
            opacity="0.48"
            d="M233.026 337.204H261.05"
            stroke="#298589"
            stroke-width="4.57784"
            stroke-miterlimit="10"
            stroke-linecap="round"
            stroke-linejoin="round"
        />
    </g>
    <path
        d="M192.441 358.563H198.29"
        stroke="#3A3736"
        stroke-width="4.57784"
        stroke-miterlimit="10"
        stroke-linecap="round"
        stroke-linejoin="round"
    />
    <path
        d="M164.604 358.563H182.917"
        stroke="#3A3736"
        stroke-width="4.57784"
        stroke-miterlimit="10"
        stroke-linecap="round"
        stroke-linejoin="round"
    />
    <path
        d="M34.188 157.31C34.188 157.31 73.5544 210.852 63.4144 268.165"
        stroke="#3A3736"
        stroke-width="4.57784"
        stroke-miterlimit="10"
        stroke-linecap="round"
        stroke-linejoin="round"
    />
    <path
        d="M37.4993 192.636L87.0948 166.018"
        stroke="#3A3736"
        stroke-width="2.28892"
        stroke-miterlimit="10"
        stroke-linecap="round"
        stroke-linejoin="round"
    />
    <path
        d="M47.627 210.852L100.938 198.485"
        stroke="#3A3736"
        stroke-width="2.28892"
        stroke-miterlimit="10"
        stroke-linecap="round"
        stroke-linejoin="round"
    />
    <path
        d="M54.0879 229.182L106.578 223.05"
        stroke="#3A3736"
        stroke-width="2.28892"
        stroke-miterlimit="10"
        stroke-linecap="round"
        stroke-linejoin="round"
    />
    <g opacity="0.62">
        <path
            opacity="0.62"
            d="M187.272 337.204H189.834"
            stroke="#3A3736"
            stroke-width="4.57784"
            stroke-miterlimit="10"
            stroke-linecap="round"
            stroke-linejoin="round"
        />
        <path
            opacity="0.62"
            d="M166.83 337.204H177.778"
            stroke="#3A3736"
            stroke-width="4.57784"
            stroke-miterlimit="10"
            stroke-linecap="round"
            stroke-linejoin="round"
        />
        <path
            opacity="0.62"
            d="M94.2927 337.204H155.172"
            stroke="#3A3736"
            stroke-width="4.57784"
            stroke-miterlimit="10"
            stroke-linecap="round"
            stroke-linejoin="round"
        />
        <path
            opacity="0.62"
            d="M82.2676 337.204H84.6633"
            stroke="#3A3736"
            stroke-width="4.57784"
            stroke-miterlimit="10"
            stroke-linecap="round"
            stroke-linejoin="round"
        />
    </g>
    <path
        d="M261.798 367.208H316.632"
        stroke="#3A3736"
        stroke-width="4.57784"
        stroke-miterlimit="10"
        stroke-linecap="round"
        stroke-linejoin="round"
    />
    <path
        d="M242.894 367.208H252.347"
        stroke="#3A3736"
        stroke-width="4.57784"
        stroke-miterlimit="10"
        stroke-linecap="round"
        stroke-linejoin="round"
    />
    <path
        d="M227.78 367.208H231.705"
        stroke="#3A3736"
        stroke-width="4.57784"
        stroke-miterlimit="10"
        stroke-linecap="round"
        stroke-linejoin="round"
    />
    <g opacity="0.59">
        <path
            opacity="0.59"
            d="M176.708 378.691H186.187"
            stroke="#3A3736"
            stroke-width="4.57784"
            stroke-miterlimit="10"
            stroke-linecap="round"
            stroke-linejoin="round"
        />
        <path
            opacity="0.59"
            d="M120.502 378.691H167.241"
            stroke="#3A3736"
            stroke-width="4.57784"
            stroke-miterlimit="10"
            stroke-linecap="round"
            stroke-linejoin="round"
        />
    </g>
    <g opacity="0.59">
        <path
            opacity="0.59"
            d="M248.606 408.088H258.086"
            stroke="#3A3736"
            stroke-width="4.57784"
            stroke-miterlimit="10"
            stroke-linecap="round"
            stroke-linejoin="round"
        />
        <path
            opacity="0.59"
            d="M216.731 408.088H239.14"
            stroke="#3A3736"
            stroke-width="4.57784"
            stroke-miterlimit="10"
            stroke-linecap="round"
            stroke-linejoin="round"
        />
    </g>
    <g opacity="0.59">
        <path
            opacity="0.59"
            d="M161.476 408.088H166.613"
            stroke="#3A3736"
            stroke-width="4.57784"
            stroke-miterlimit="10"
            stroke-linecap="round"
            stroke-linejoin="round"
        />
        <path
            opacity="0.59"
            d="M141.202 408.088H153.344"
            stroke="#3A3736"
            stroke-width="4.57784"
            stroke-miterlimit="10"
            stroke-linecap="round"
            stroke-linejoin="round"
        />
    </g>
    <g opacity="0.33">
        <path
            opacity="0.33"
            d="M187.927 437.488H206.293"
            stroke="#3A3736"
            stroke-width="4.57784"
            stroke-miterlimit="10"
            stroke-linecap="round"
            stroke-linejoin="round"
        />
        <path
            opacity="0.33"
            d="M126.169 437.488H169.585"
            stroke="#3A3736"
            stroke-width="4.57784"
            stroke-miterlimit="10"
            stroke-linecap="round"
            stroke-linejoin="round"
        />
    </g>
    <path
        d="M294.061 257.362C294.061 257.362 316.818 255.696 335.556 251.724M343.301 249.901C349.89 248.906 356.363 246.744 360.806 244.673L343.301 249.901Z"
        stroke="#3A3736"
        stroke-width="2.28892"
        stroke-miterlimit="10"
        stroke-linecap="round"
        stroke-linejoin="round"
    />
    <path
        d="M318.19 191.762C339.449 186.25 360.806 175.215 381.536 157.31M318.786 204.669C344.248 204.669 371.885 196.241 386.566 183.104L318.786 204.669Z"
        stroke="#3A3736"
        stroke-width="2.28892"
        stroke-miterlimit="10"
        stroke-linecap="round"
        stroke-linejoin="round"
    />
    <path
        d="M334.668 144.037C334.668 144.037 328.207 198.485 330.747 239.486"
        stroke="#3A3736"
        stroke-width="4.57784"
        stroke-miterlimit="10"
        stroke-linecap="round"
        stroke-linejoin="round"
    />
</svg>
