<svg width="100" height="19" viewBox="0 0 100 19" fill="none" xmlns="http://www.w3.org/2000/svg">
<path d="M11.06 9.36C12.036 9.568 12.82 10.056 13.412 10.824C14.004 11.576 14.3 12.44 14.3 13.416C14.3 14.824 13.804 15.944 12.812 16.776C11.836 17.592 10.468 18 8.70801 18H0.860009V1.152H8.44401C10.156 1.152 11.492 1.544 12.452 2.328C13.428 3.112 13.916 4.176 13.916 5.52C13.916 6.512 13.652 7.336 13.124 7.992C12.612 8.648 11.924 9.104 11.06 9.36ZM4.96401 7.968H7.65201C8.32401 7.968 8.83601 7.824 9.18801 7.536C9.55601 7.232 9.74001 6.792 9.74001 6.216C9.74001 5.64 9.55601 5.2 9.18801 4.896C8.83601 4.592 8.32401 4.44 7.65201 4.44H4.96401V7.968ZM7.98801 14.688C8.67601 14.688 9.20401 14.536 9.57201 14.232C9.95601 13.912 10.148 13.456 10.148 12.864C10.148 12.272 9.94801 11.808 9.54801 11.472C9.16401 11.136 8.62801 10.968 7.94001 10.968H4.96401V14.688H7.98801ZM26.4483 18L20.7843 10.56V18H16.6803V1.152H20.7843V8.544L26.4003 1.152H31.2243L24.6963 9.408L31.4643 18H26.4483ZM46.2547 6.576C46.2547 7.552 46.0307 8.448 45.5827 9.264C45.1347 10.064 44.4467 10.712 43.5187 11.208C42.5907 11.704 41.4387 11.952 40.0627 11.952H37.5187V18H33.4147V1.152H40.0627C41.4067 1.152 42.5427 1.384 43.4707 1.848C44.3987 2.312 45.0947 2.952 45.5587 3.768C46.0227 4.584 46.2547 5.52 46.2547 6.576ZM39.7507 8.688C40.5347 8.688 41.1187 8.504 41.5027 8.136C41.8867 7.768 42.0787 7.248 42.0787 6.576C42.0787 5.904 41.8867 5.384 41.5027 5.016C41.1187 4.648 40.5347 4.464 39.7507 4.464H37.5187V8.688H39.7507ZM54.4873 18.168C53.2553 18.168 52.1513 17.968 51.1753 17.568C50.1993 17.168 49.4153 16.576 48.8233 15.792C48.2473 15.008 47.9433 14.064 47.9113 12.96H52.2793C52.3433 13.584 52.5593 14.064 52.9273 14.4C53.2953 14.72 53.7753 14.88 54.3673 14.88C54.9753 14.88 55.4553 14.744 55.8073 14.472C56.1593 14.184 56.3353 13.792 56.3353 13.296C56.3353 12.88 56.1913 12.536 55.9033 12.264C55.6313 11.992 55.2873 11.768 54.8713 11.592C54.4713 11.416 53.8953 11.216 53.1433 10.992C52.0553 10.656 51.1673 10.32 50.4793 9.984C49.7913 9.648 49.1993 9.152 48.7033 8.496C48.2073 7.84 47.9593 6.984 47.9593 5.928C47.9593 4.36 48.5273 3.136 49.6633 2.256C50.7993 1.36 52.2793 0.912 54.1033 0.912C55.9593 0.912 57.4553 1.36 58.5913 2.256C59.7273 3.136 60.3353 4.368 60.4153 5.952H55.9753C55.9433 5.408 55.7433 4.984 55.3753 4.68C55.0073 4.36 54.5353 4.2 53.9593 4.2C53.4633 4.2 53.0633 4.336 52.7593 4.608C52.4553 4.864 52.3033 5.24 52.3033 5.736C52.3033 6.28 52.5593 6.704 53.0713 7.008C53.5833 7.312 54.3833 7.64 55.4713 7.992C56.5593 8.36 57.4393 8.712 58.1113 9.048C58.7993 9.384 59.3913 9.872 59.8873 10.512C60.3833 11.152 60.6313 11.976 60.6313 12.984C60.6313 13.944 60.3833 14.816 59.8873 15.6C59.4073 16.384 58.7033 17.008 57.7753 17.472C56.8473 17.936 55.7513 18.168 54.4873 18.168ZM69.4689 1.152C71.2449 1.152 72.7969 1.504 74.1249 2.208C75.4529 2.912 76.4769 3.904 77.1969 5.184C77.9329 6.448 78.3009 7.912 78.3009 9.576C78.3009 11.224 77.9329 12.688 77.1969 13.968C76.4769 15.248 75.4449 16.24 74.1009 16.944C72.7729 17.648 71.2289 18 69.4689 18H63.1569V1.152H69.4689ZM69.2049 14.448C70.7569 14.448 71.9649 14.024 72.8289 13.176C73.6929 12.328 74.1249 11.128 74.1249 9.576C74.1249 8.024 73.6929 6.816 72.8289 5.952C71.9649 5.088 70.7569 4.656 69.2049 4.656H67.2609V14.448H69.2049ZM99.6744 1.152V18H95.5704V7.896L91.8024 18H88.4904L84.6984 7.872V18H80.5944V1.152H85.4424L90.1704 12.816L94.8504 1.152H99.6744Z" fill="white"/>
</svg>
