<svg width="24" height="24" viewBox="0 0 24 24" fill="none" xmlns="http://www.w3.org/2000/svg">
<path d="M3 16.2738C3 17.8891 4.30945 19.1986 5.92474 19.1986H10.3479L10.6681 17.9178C10.8139 17.3347 11.1155 16.8022 11.5405 16.3771L16.8522 11.0655C17.4947 10.423 18.3591 10.138 19.1986 10.2103V5.92474C19.1986 4.30945 17.8891 3 16.2738 3H10.1994V7.27463C10.1994 8.88992 8.88992 10.1994 7.27463 10.1994H3V16.2738ZM8.84949 3.39597L3.39597 8.84949H7.27463C8.1444 8.84949 8.84949 8.1444 8.84949 7.27463V3.39597ZM17.4886 11.7018L12.1769 17.0135C11.8672 17.3231 11.6475 17.7112 11.5412 18.1361L11.1293 19.7836C10.9503 20.5 11.5993 21.1491 12.3157 20.9699L13.9632 20.558C14.3881 20.4518 14.7761 20.2321 15.0859 19.9224L20.3975 14.6107C21.2008 13.8074 21.2008 12.5051 20.3975 11.7018C19.5943 10.8984 18.2919 10.8984 17.4886 11.7018Z" fill="white"/>
<mask id="mask0_3850_4887" style="mask-type:luminance" maskUnits="userSpaceOnUse" x="3" y="3" width="18" height="18">
<path d="M3 16.2738C3 17.8891 4.30945 19.1986 5.92474 19.1986H10.3479L10.6681 17.9178C10.8139 17.3347 11.1155 16.8022 11.5405 16.3771L16.8522 11.0655C17.4947 10.423 18.3591 10.138 19.1986 10.2103V5.92474C19.1986 4.30945 17.8891 3 16.2738 3H10.1994V7.27463C10.1994 8.88992 8.88992 10.1994 7.27463 10.1994H3V16.2738ZM8.84949 3.39597L3.39597 8.84949H7.27463C8.1444 8.84949 8.84949 8.1444 8.84949 7.27463V3.39597ZM17.4886 11.7018L12.1769 17.0135C11.8672 17.3231 11.6475 17.7112 11.5412 18.1361L11.1293 19.7836C10.9503 20.5 11.5993 21.1491 12.3157 20.9699L13.9632 20.558C14.3881 20.4518 14.7761 20.2321 15.0859 19.9224L20.3975 14.6107C21.2008 13.8074 21.2008 12.5051 20.3975 11.7018C19.5943 10.8984 18.2919 10.8984 17.4886 11.7018Z" fill="white"/>
</mask>
<g mask="url(#mask0_3850_4887)">
<rect width="24" height="24" fill="white"/>
</g>
</svg>
