<svg width="24" height="24" viewBox="0 0 24 24" fill="none" xmlns="http://www.w3.org/2000/svg">
<path fill-rule="evenodd" clip-rule="evenodd" d="M4.28571 3H19.7143C20.4244 3 21 3.58547 21 4.30769V4.96154C21 5.68376 20.4244 6.26923 19.7143 6.26923H4.28571C3.57563 6.26923 3 5.68376 3 4.96154V4.30769C3 3.58547 3.57563 3 4.28571 3ZM4.57475 7.60448C4.61609 7.58598 4.66081 7.57654 4.70598 7.57679H19.292C19.3372 7.57654 19.3819 7.58598 19.4232 7.60448C19.4646 7.62299 19.5016 7.65016 19.5319 7.6842C19.5623 7.71825 19.5852 7.75842 19.5992 7.80208C19.6133 7.84575 19.6181 7.89193 19.6134 7.93763L18.5579 18.259V18.2676C18.5027 18.7448 18.2772 19.1848 17.9241 19.5041C17.5711 19.8235 17.1151 19.9999 16.6426 19.9999H7.35776C6.88517 20.0001 6.42897 19.8237 6.07575 19.5044C5.72252 19.1851 5.49688 18.745 5.44165 18.2676C5.44143 18.2646 5.44143 18.2616 5.44165 18.2586L4.38455 7.93763C4.37986 7.89193 4.3847 7.84575 4.39874 7.80208C4.41278 7.75842 4.43571 7.71825 4.46604 7.6842C4.49637 7.65016 4.53341 7.62299 4.57475 7.60448ZM14.8481 15.173C14.8146 15.0933 14.7659 15.0211 14.7048 14.9608L12.9092 13.1345L14.7048 11.3082C14.8224 11.185 14.8877 11.0196 14.8864 10.8479C14.8851 10.6761 14.8175 10.5118 14.698 10.3903C14.5786 10.2689 14.417 10.2002 14.2481 10.1989C14.0792 10.1977 13.9167 10.2641 13.7956 10.3838L12.0004 12.2097L10.2048 10.3838C10.0837 10.2641 9.92115 10.1977 9.75228 10.1989C9.58342 10.2002 9.4218 10.2689 9.30237 10.3903C9.18293 10.5118 9.11527 10.6761 9.114 10.8479C9.11273 11.0196 9.17795 11.185 9.29557 11.3082L11.0912 13.1345L9.29557 14.9608C9.17795 15.084 9.11273 15.2494 9.114 15.4211C9.11527 15.5929 9.18293 15.7572 9.30237 15.8786C9.4218 16 9.58342 16.0688 9.75228 16.07C9.92115 16.0712 10.0837 16.0048 10.2048 15.8851L12.0004 14.0593L13.7956 15.8851C13.8549 15.9473 13.9258 15.9969 14.0042 16.0309C14.0826 16.065 14.1668 16.0829 14.252 16.0835C14.3372 16.0842 14.4217 16.0676 14.5005 16.0347C14.5794 16.0019 14.651 15.9534 14.7113 15.8921C14.7716 15.8309 14.8193 15.758 14.8516 15.6778C14.8839 15.5977 14.9003 15.5117 14.8997 15.4251C14.8991 15.3384 14.8815 15.2527 14.8481 15.173Z" fill="white"/>
<mask id="mask0_3850_4895" style="mask-type:luminance" maskUnits="userSpaceOnUse" x="3" y="3" width="18" height="17">
<path fill-rule="evenodd" clip-rule="evenodd" d="M4.28571 3H19.7143C20.4244 3 21 3.58547 21 4.30769V4.96154C21 5.68376 20.4244 6.26923 19.7143 6.26923H4.28571C3.57563 6.26923 3 5.68376 3 4.96154V4.30769C3 3.58547 3.57563 3 4.28571 3ZM4.57475 7.60448C4.61609 7.58598 4.66081 7.57654 4.70598 7.57679H19.292C19.3372 7.57654 19.3819 7.58598 19.4232 7.60448C19.4646 7.62299 19.5016 7.65016 19.5319 7.6842C19.5623 7.71825 19.5852 7.75842 19.5992 7.80208C19.6133 7.84575 19.6181 7.89193 19.6134 7.93763L18.5579 18.259V18.2676C18.5027 18.7448 18.2772 19.1848 17.9241 19.5041C17.5711 19.8235 17.1151 19.9999 16.6426 19.9999H7.35776C6.88517 20.0001 6.42897 19.8237 6.07575 19.5044C5.72252 19.1851 5.49688 18.745 5.44165 18.2676C5.44143 18.2646 5.44143 18.2616 5.44165 18.2586L4.38455 7.93763C4.37986 7.89193 4.3847 7.84575 4.39874 7.80208C4.41278 7.75842 4.43571 7.71825 4.46604 7.6842C4.49637 7.65016 4.53341 7.62299 4.57475 7.60448ZM14.8481 15.173C14.8146 15.0933 14.7659 15.0211 14.7048 14.9608L12.9092 13.1345L14.7048 11.3082C14.8224 11.185 14.8877 11.0196 14.8864 10.8479C14.8851 10.6761 14.8175 10.5118 14.698 10.3903C14.5786 10.2689 14.417 10.2002 14.2481 10.1989C14.0792 10.1977 13.9167 10.2641 13.7956 10.3838L12.0004 12.2097L10.2048 10.3838C10.0837 10.2641 9.92115 10.1977 9.75228 10.1989C9.58342 10.2002 9.4218 10.2689 9.30237 10.3903C9.18293 10.5118 9.11527 10.6761 9.114 10.8479C9.11273 11.0196 9.17795 11.185 9.29557 11.3082L11.0912 13.1345L9.29557 14.9608C9.17795 15.084 9.11273 15.2494 9.114 15.4211C9.11527 15.5929 9.18293 15.7572 9.30237 15.8786C9.4218 16 9.58342 16.0688 9.75228 16.07C9.92115 16.0712 10.0837 16.0048 10.2048 15.8851L12.0004 14.0593L13.7956 15.8851C13.8549 15.9473 13.9258 15.9969 14.0042 16.0309C14.0826 16.065 14.1668 16.0829 14.252 16.0835C14.3372 16.0842 14.4217 16.0676 14.5005 16.0347C14.5794 16.0019 14.651 15.9534 14.7113 15.8921C14.7716 15.8309 14.8193 15.758 14.8516 15.6778C14.8839 15.5977 14.9003 15.5117 14.8997 15.4251C14.8991 15.3384 14.8815 15.2527 14.8481 15.173Z" fill="white"/>
</mask>
<g mask="url(#mask0_3850_4895)">
<rect width="24" height="24" fill="white"/>
</g>
</svg>
